G04*
G04 #@! TF.GenerationSoftware,Altium Limited,Altium Designer,20.1.14 (287)*
G04*
G04 Layer_Color=7585984*
%FSLAX25Y25*%
%MOIN*%
G70*
G04*
G04 #@! TF.SameCoordinates,A1E22FD0-206B-4EE7-9784-6D1C4D5CB387*
G04*
G04*
G04 #@! TF.FilePolarity,Positive*
G04*
G01*
G75*
%ADD35C,0.00400*%
G36*
X54552Y19310D02*
X54566Y19289D01*
X54573Y19268D01*
Y19261D01*
X54767Y18234D01*
X54774Y18206D01*
X54788Y18193D01*
X54808Y18186D01*
X54815D01*
X55502Y17894D01*
X55579D01*
X56425Y18505D01*
X56460D01*
X56481Y18498D01*
X56495Y18491D01*
X56502Y18484D01*
X57237Y17762D01*
Y17735D01*
Y17728D01*
Y17721D01*
Y17700D01*
Y17693D01*
X56655Y16832D01*
Y16826D01*
Y16818D01*
Y16812D01*
Y16805D01*
Y16777D01*
Y16763D01*
X56946Y16048D01*
X56974Y16020D01*
X57002Y16007D01*
X57008Y16000D01*
X57015D01*
X58001Y15833D01*
X58029Y15826D01*
X58043Y15812D01*
X58049Y15798D01*
Y15791D01*
Y14757D01*
X58043Y14730D01*
X58022Y14716D01*
X58008Y14709D01*
X58001D01*
X57036Y14507D01*
X57008Y14501D01*
X57002Y14487D01*
X56995Y14466D01*
Y14459D01*
X56675Y13709D01*
Y13675D01*
Y13668D01*
Y13661D01*
Y13640D01*
Y13633D01*
Y13626D01*
X57237Y12828D01*
Y12821D01*
Y12814D01*
Y12807D01*
Y12800D01*
Y12786D01*
Y12779D01*
X56502Y12037D01*
X56481Y12023D01*
X56453D01*
X56432Y12030D01*
X56425Y12037D01*
X55655Y12578D01*
X55579D01*
X55232Y12377D01*
X55197Y12384D01*
X55176Y12391D01*
X55163Y12398D01*
X55155Y12405D01*
X54455Y14140D01*
Y14174D01*
X54461Y14195D01*
X54468Y14209D01*
X54475Y14216D01*
X54573Y14258D01*
Y14265D01*
X54580Y14272D01*
X54586Y14278D01*
X54593D01*
X54607Y14306D01*
X54614Y14320D01*
X54704Y14383D01*
X54788Y14445D01*
X54857Y14521D01*
X54913Y14598D01*
X54968Y14674D01*
X55010Y14750D01*
X55045Y14827D01*
X55072Y14903D01*
X55107Y15035D01*
X55121Y15097D01*
X55128Y15146D01*
Y15188D01*
X55135Y15222D01*
Y15243D01*
Y15250D01*
X55128Y15340D01*
X55121Y15424D01*
X55086Y15576D01*
X55031Y15715D01*
X54968Y15833D01*
X54913Y15930D01*
X54857Y16000D01*
X54836Y16027D01*
X54822Y16048D01*
X54808Y16055D01*
Y16062D01*
X54746Y16125D01*
X54677Y16173D01*
X54607Y16222D01*
X54545Y16256D01*
X54406Y16319D01*
X54281Y16361D01*
X54170Y16381D01*
X54122Y16395D01*
X54080D01*
X54052Y16402D01*
X54004D01*
X53920Y16395D01*
X53837Y16388D01*
X53684Y16347D01*
X53545Y16298D01*
X53434Y16236D01*
X53337Y16173D01*
X53268Y16118D01*
X53247Y16097D01*
X53226Y16076D01*
X53219Y16069D01*
X53212Y16062D01*
X53157Y16000D01*
X53101Y15930D01*
X53018Y15791D01*
X52962Y15653D01*
X52921Y15528D01*
X52893Y15417D01*
X52886Y15368D01*
Y15326D01*
X52879Y15299D01*
Y15271D01*
Y15257D01*
Y15250D01*
X52886Y15139D01*
X52900Y15028D01*
X52928Y14931D01*
X52962Y14841D01*
X52997Y14757D01*
X53039Y14681D01*
X53087Y14612D01*
X53136Y14549D01*
X53185Y14494D01*
X53233Y14452D01*
X53275Y14410D01*
X53310Y14376D01*
X53344Y14355D01*
X53372Y14334D01*
X53386Y14327D01*
X53393Y14320D01*
X53421Y14292D01*
X53434Y14286D01*
Y14278D01*
X53441Y14265D01*
Y14258D01*
X53545Y14216D01*
X53559Y14195D01*
X53566Y14167D01*
X53573Y14147D01*
Y14140D01*
X52831Y12405D01*
X52824Y12391D01*
X52803Y12384D01*
X52789Y12377D01*
X52782D01*
X52442Y12578D01*
X52373D01*
X51581Y12037D01*
X51554Y12023D01*
X51533D01*
X51519Y12030D01*
X51512Y12037D01*
X50783Y12779D01*
Y12786D01*
Y12793D01*
Y12800D01*
Y12814D01*
Y12828D01*
X51338Y13626D01*
Y13654D01*
Y13661D01*
Y13696D01*
Y13702D01*
Y13709D01*
X51019Y14459D01*
X51012Y14487D01*
X50991Y14501D01*
X50978Y14507D01*
X50971D01*
X50020Y14709D01*
X49992Y14716D01*
X49978Y14737D01*
X49971Y14750D01*
Y14757D01*
Y15791D01*
X49978Y15819D01*
X49992Y15826D01*
X50013Y15833D01*
X50020D01*
X50999Y16000D01*
X51019Y16007D01*
X51033Y16027D01*
X51040Y16041D01*
Y16048D01*
X51373Y16763D01*
Y16791D01*
Y16798D01*
Y16805D01*
Y16818D01*
Y16832D01*
X50783Y17693D01*
Y17714D01*
Y17721D01*
Y17749D01*
Y17762D01*
X51512Y18484D01*
X51533Y18498D01*
X51554Y18505D01*
X51581D01*
X52442Y17894D01*
X52511D01*
X53205Y18186D01*
X53233Y18193D01*
X53247Y18214D01*
X53254Y18227D01*
Y18234D01*
X53441Y19261D01*
X53448Y19296D01*
X53462Y19310D01*
X53483Y19317D01*
X54524D01*
X54552Y19310D01*
D02*
G37*
G36*
X58119Y8393D02*
X57925D01*
Y9025D01*
X57918Y9108D01*
X57890Y9171D01*
X57855Y9212D01*
X57814Y9247D01*
X57779Y9261D01*
X57744Y9268D01*
X57716Y9275D01*
X57709D01*
X57633Y9261D01*
X57578Y9233D01*
X57543Y9198D01*
X57515Y9150D01*
X57501Y9101D01*
X57487Y9067D01*
Y9039D01*
Y9025D01*
Y8393D01*
X57265D01*
Y9101D01*
X57272Y9164D01*
X57279Y9219D01*
X57300Y9268D01*
X57321Y9309D01*
X57376Y9372D01*
X57446Y9420D01*
X57515Y9441D01*
X57571Y9455D01*
X57612Y9462D01*
X57626D01*
X57702Y9455D01*
X57765Y9441D01*
X57814Y9427D01*
X57855Y9407D01*
X57890Y9379D01*
X57911Y9365D01*
X57918Y9351D01*
X57925Y9344D01*
Y10205D01*
X57869Y10163D01*
X57814Y10128D01*
X57765Y10108D01*
X57716Y10087D01*
X57682Y10080D01*
X57654Y10073D01*
X57626D01*
X57571Y10080D01*
X57522Y10094D01*
X57473Y10121D01*
X57425Y10149D01*
X57390Y10177D01*
X57362Y10205D01*
X57342Y10219D01*
X57335Y10226D01*
X57314Y10274D01*
X57293Y10337D01*
X57272Y10475D01*
X57265Y10538D01*
Y10593D01*
Y10628D01*
Y10642D01*
Y10746D01*
X57279Y10836D01*
X57286Y10913D01*
X57300Y10968D01*
X57314Y11010D01*
X57321Y11045D01*
X57335Y11058D01*
Y11065D01*
X57383Y11107D01*
X57432Y11135D01*
X57480Y11156D01*
X57529Y11169D01*
X57564Y11176D01*
X57598Y11183D01*
X57626D01*
X57689Y11176D01*
X57751Y11162D01*
X57800Y11149D01*
X57841Y11128D01*
X57876Y11100D01*
X57904Y11086D01*
X57918Y11072D01*
X57925Y11065D01*
Y11183D01*
X58119D01*
Y8393D01*
D02*
G37*
G36*
X56037Y10108D02*
X55815D01*
Y10746D01*
X55808Y10829D01*
X55780Y10885D01*
X55745Y10926D01*
X55711Y10961D01*
X55669Y10975D01*
X55641Y10982D01*
X55613Y10989D01*
X55607D01*
X55530Y10982D01*
X55475Y10954D01*
X55440Y10913D01*
X55412Y10871D01*
X55398Y10822D01*
X55384Y10788D01*
Y10760D01*
Y10746D01*
Y10108D01*
X55155D01*
Y10815D01*
X55163Y10878D01*
X55169Y10940D01*
X55190Y10989D01*
X55211Y11031D01*
X55273Y11093D01*
X55336Y11135D01*
X55405Y11162D01*
X55468Y11176D01*
X55510Y11183D01*
X55523D01*
X55593Y11176D01*
X55655Y11162D01*
X55704Y11149D01*
X55745Y11128D01*
X55773Y11100D01*
X55794Y11086D01*
X55808Y11072D01*
X55815Y11065D01*
Y11183D01*
X56037D01*
Y10108D01*
D02*
G37*
G36*
X51338D02*
X51116D01*
Y10746D01*
X51109Y10829D01*
X51082Y10885D01*
X51047Y10926D01*
X51005Y10961D01*
X50971Y10975D01*
X50936Y10982D01*
X50908Y10989D01*
X50880D01*
X50860Y10975D01*
X50825Y10954D01*
X50797Y10926D01*
X50783Y10920D01*
Y10913D01*
X50610Y11107D01*
X50651Y11135D01*
X50693Y11149D01*
X50762Y11176D01*
X50790D01*
X50811Y11183D01*
X50832D01*
X50901Y11176D01*
X50964Y11162D01*
X51012Y11149D01*
X51047Y11128D01*
X51082Y11100D01*
X51103Y11086D01*
X51109Y11072D01*
X51116Y11065D01*
Y11183D01*
X51338D01*
Y10108D01*
D02*
G37*
G36*
X52442Y10448D02*
X52435Y10385D01*
X52428Y10323D01*
X52407Y10274D01*
X52386Y10232D01*
X52324Y10163D01*
X52255Y10121D01*
X52192Y10094D01*
X52130Y10080D01*
X52088Y10073D01*
X52074D01*
X52026Y10080D01*
X51970Y10094D01*
X51887Y10142D01*
X51852Y10163D01*
X51824Y10184D01*
X51810Y10198D01*
X51803Y10205D01*
Y10108D01*
X51581D01*
Y11183D01*
X51803D01*
Y10545D01*
X51810Y10462D01*
X51831Y10399D01*
X51866Y10357D01*
X51901Y10330D01*
X51942Y10309D01*
X51970Y10302D01*
X51998Y10295D01*
X52005D01*
X52074Y10309D01*
X52130Y10337D01*
X52164Y10371D01*
X52192Y10420D01*
X52206Y10468D01*
X52213Y10503D01*
X52220Y10531D01*
Y10545D01*
Y11183D01*
X52442D01*
Y10448D01*
D02*
G37*
G36*
X50221Y11176D02*
X50297Y11162D01*
X50367Y11135D01*
X50422Y11100D01*
X50471Y11058D01*
X50513Y11010D01*
X50540Y10961D01*
X50568Y10913D01*
X50603Y10815D01*
X50624Y10725D01*
X50631Y10690D01*
Y10663D01*
Y10649D01*
Y10642D01*
X50624Y10545D01*
X50610Y10455D01*
X50582Y10378D01*
X50554Y10316D01*
X50520Y10260D01*
X50478Y10212D01*
X50429Y10177D01*
X50381Y10142D01*
X50291Y10101D01*
X50214Y10080D01*
X50187D01*
X50159Y10073D01*
X50138D01*
X50055Y10080D01*
X49985Y10108D01*
X49916Y10135D01*
X49860Y10177D01*
X49812Y10212D01*
X49777Y10246D01*
X49756Y10267D01*
X49749Y10274D01*
X49916Y10427D01*
X49951Y10385D01*
X49985Y10351D01*
X50027Y10330D01*
X50062Y10309D01*
X50089Y10302D01*
X50117Y10295D01*
X50138D01*
X50187Y10302D01*
X50228Y10309D01*
X50297Y10351D01*
X50339Y10406D01*
X50374Y10468D01*
X50395Y10531D01*
X50402Y10586D01*
X50409Y10628D01*
Y10635D01*
Y10642D01*
Y10704D01*
X50395Y10760D01*
X50381Y10802D01*
X50367Y10843D01*
X50325Y10906D01*
X50270Y10947D01*
X50221Y10968D01*
X50179Y10982D01*
X50152Y10989D01*
X50138D01*
X50089Y10982D01*
X50048Y10968D01*
X49978Y10926D01*
X49951Y10906D01*
X49930Y10885D01*
X49923Y10871D01*
X49916Y10864D01*
X49749Y11017D01*
X49819Y11072D01*
X49881Y11114D01*
X49951Y11142D01*
X50006Y11162D01*
X50062Y11176D01*
X50103Y11183D01*
X50138D01*
X50221Y11176D01*
D02*
G37*
G36*
X56752D02*
X56821Y11162D01*
X56884Y11135D01*
X56932Y11100D01*
X56974Y11058D01*
X57008Y11010D01*
X57064Y10913D01*
X57099Y10815D01*
X57113Y10725D01*
X57120Y10690D01*
Y10663D01*
Y10649D01*
Y10642D01*
X57113Y10545D01*
X57099Y10455D01*
X57071Y10378D01*
X57043Y10316D01*
X57008Y10260D01*
X56967Y10212D01*
X56918Y10177D01*
X56870Y10142D01*
X56779Y10101D01*
X56703Y10080D01*
X56675D01*
X56648Y10073D01*
X56627D01*
X56543Y10080D01*
X56474Y10101D01*
X56405Y10128D01*
X56349Y10163D01*
X56301Y10198D01*
X56266Y10226D01*
X56245Y10246D01*
X56238Y10253D01*
X56405Y10406D01*
X56439Y10364D01*
X56481Y10330D01*
X56523Y10309D01*
X56557Y10288D01*
X56599Y10281D01*
X56627Y10274D01*
X56655D01*
X56738Y10288D01*
X56793Y10316D01*
X56835Y10357D01*
X56870Y10413D01*
X56884Y10462D01*
X56890Y10503D01*
X56897Y10531D01*
Y10545D01*
X56217D01*
Y10746D01*
X56224Y10822D01*
X56238Y10892D01*
X56259Y10947D01*
X56287Y10996D01*
X56321Y11045D01*
X56363Y11079D01*
X56446Y11128D01*
X56530Y11162D01*
X56606Y11176D01*
X56634Y11183D01*
X56675D01*
X56752Y11176D01*
D02*
G37*
G36*
X49333D02*
X49402Y11162D01*
X49465Y11135D01*
X49513Y11100D01*
X49555Y11058D01*
X49590Y11010D01*
X49645Y10913D01*
X49680Y10815D01*
X49694Y10725D01*
X49701Y10690D01*
Y10663D01*
Y10649D01*
Y10642D01*
X49694Y10545D01*
X49680Y10455D01*
X49652Y10378D01*
X49624Y10316D01*
X49590Y10260D01*
X49548Y10212D01*
X49499Y10177D01*
X49451Y10142D01*
X49361Y10101D01*
X49284Y10080D01*
X49257D01*
X49229Y10073D01*
X49208D01*
X49132Y10080D01*
X49062Y10101D01*
X48993Y10128D01*
X48937Y10163D01*
X48889Y10198D01*
X48847Y10226D01*
X48826Y10246D01*
X48819Y10253D01*
X49000Y10406D01*
X49027Y10364D01*
X49062Y10330D01*
X49097Y10309D01*
X49132Y10288D01*
X49159Y10281D01*
X49187Y10274D01*
X49208D01*
X49298Y10288D01*
X49367Y10316D01*
X49409Y10357D01*
X49444Y10413D01*
X49465Y10462D01*
X49472Y10503D01*
X49479Y10531D01*
Y10545D01*
X48798D01*
Y10746D01*
X48805Y10822D01*
X48819Y10892D01*
X48840Y10947D01*
X48868Y10996D01*
X48903Y11045D01*
X48944Y11079D01*
X49027Y11128D01*
X49111Y11162D01*
X49187Y11176D01*
X49215Y11183D01*
X49257D01*
X49333Y11176D01*
D02*
G37*
G36*
X58834D02*
X58903Y11162D01*
X58966Y11149D01*
X59007Y11128D01*
X59049Y11100D01*
X59077Y11086D01*
X59091Y11072D01*
X59097Y11065D01*
X59139Y11003D01*
X59167Y10933D01*
X59188Y10864D01*
X59202Y10795D01*
X59209Y10739D01*
X59215Y10684D01*
Y10656D01*
Y10642D01*
X59209Y10552D01*
X59195Y10468D01*
X59181Y10392D01*
X59153Y10337D01*
X59132Y10288D01*
X59118Y10253D01*
X59104Y10232D01*
X59097Y10226D01*
X59042Y10177D01*
X58986Y10135D01*
X58931Y10108D01*
X58875Y10094D01*
X58827Y10080D01*
X58792Y10073D01*
X58757D01*
X58681Y10080D01*
X58612Y10094D01*
X58556Y10121D01*
X58514Y10149D01*
X58480Y10177D01*
X58459Y10205D01*
X58445Y10219D01*
X58438Y10226D01*
X58397Y10274D01*
X58369Y10344D01*
X58348Y10406D01*
X58334Y10475D01*
X58327Y10545D01*
X58320Y10593D01*
Y10628D01*
Y10642D01*
X58327Y10746D01*
X58341Y10836D01*
X58355Y10913D01*
X58376Y10968D01*
X58403Y11010D01*
X58417Y11045D01*
X58431Y11058D01*
X58438Y11065D01*
X58473Y11107D01*
X58521Y11135D01*
X58577Y11156D01*
X58626Y11169D01*
X58681Y11176D01*
X58716Y11183D01*
X58757D01*
X58834Y11176D01*
D02*
G37*
G36*
X54233Y11169D02*
X54281Y11156D01*
X54330Y11135D01*
X54364Y11107D01*
X54399Y11079D01*
X54448Y11024D01*
X54475Y10968D01*
X54489Y10913D01*
X54496Y10878D01*
Y10871D01*
Y10864D01*
X54482Y10774D01*
X54448Y10697D01*
X54406Y10642D01*
X54351Y10600D01*
X54295Y10572D01*
X54253Y10559D01*
X54219Y10545D01*
X54004D01*
X53955Y10524D01*
X53920Y10503D01*
X53899Y10489D01*
X53878Y10468D01*
X53865Y10441D01*
Y10427D01*
X53872Y10378D01*
X53899Y10337D01*
X53927Y10309D01*
X53969Y10295D01*
X54004Y10281D01*
X54038Y10274D01*
X54073D01*
X54142Y10281D01*
X54212Y10295D01*
X54274Y10323D01*
X54323Y10351D01*
X54364Y10378D01*
X54399Y10406D01*
X54420Y10420D01*
X54427Y10427D01*
X54573Y10274D01*
X54496Y10205D01*
X54413Y10156D01*
X54337Y10121D01*
X54260Y10101D01*
X54198Y10087D01*
X54149Y10073D01*
X54101D01*
X54017Y10080D01*
X53948Y10087D01*
X53886Y10108D01*
X53837Y10128D01*
X53788Y10156D01*
X53754Y10184D01*
X53698Y10253D01*
X53663Y10316D01*
X53649Y10371D01*
X53643Y10413D01*
Y10420D01*
Y10427D01*
Y10475D01*
X53657Y10524D01*
X53691Y10600D01*
X53747Y10656D01*
X53802Y10690D01*
X53858Y10718D01*
X53913Y10739D01*
X53948Y10746D01*
X53962D01*
X54156Y10767D01*
X54205Y10774D01*
X54239Y10781D01*
X54267Y10795D01*
X54281Y10815D01*
X54302Y10850D01*
Y10857D01*
Y10864D01*
X54295Y10906D01*
X54267Y10933D01*
X54239Y10961D01*
X54198Y10975D01*
X54163Y10982D01*
X54128Y10989D01*
X54101D01*
X54059Y10982D01*
X54017Y10975D01*
X53920Y10940D01*
X53878Y10920D01*
X53844Y10899D01*
X53823Y10892D01*
X53816Y10885D01*
X53691Y11038D01*
X53754Y11086D01*
X53816Y11121D01*
X53886Y11149D01*
X53955Y11162D01*
X54010Y11176D01*
X54059Y11183D01*
X54170D01*
X54233Y11169D01*
D02*
G37*
G36*
X53157Y11176D02*
X53226Y11162D01*
X53282Y11149D01*
X53330Y11128D01*
X53372Y11100D01*
X53400Y11086D01*
X53414Y11072D01*
X53421Y11065D01*
X53455Y11003D01*
X53483Y10940D01*
X53497Y10871D01*
X53511Y10802D01*
X53518Y10739D01*
X53525Y10690D01*
Y10656D01*
Y10642D01*
X53518Y10545D01*
X53511Y10455D01*
X53490Y10385D01*
X53469Y10330D01*
X53455Y10281D01*
X53434Y10253D01*
X53427Y10232D01*
X53421Y10226D01*
X53365Y10177D01*
X53303Y10135D01*
X53247Y10108D01*
X53192Y10094D01*
X53143Y10080D01*
X53108Y10073D01*
X53074D01*
X52997Y10080D01*
X52935Y10094D01*
X52886Y10121D01*
X52838Y10149D01*
X52803Y10177D01*
X52782Y10205D01*
X52768Y10219D01*
X52761Y10226D01*
X52720Y10274D01*
X52692Y10344D01*
X52671Y10406D01*
X52657Y10475D01*
X52650Y10545D01*
X52643Y10593D01*
Y10628D01*
Y10642D01*
X52650Y10746D01*
X52664Y10836D01*
X52678Y10913D01*
X52699Y10968D01*
X52727Y11010D01*
X52740Y11045D01*
X52754Y11058D01*
X52761Y11065D01*
X52803Y11107D01*
X52845Y11135D01*
X52900Y11156D01*
X52949Y11169D01*
X52997Y11176D01*
X53039Y11183D01*
X53074D01*
X53157Y11176D01*
D02*
G37*
G36*
X55995Y8393D02*
X55766D01*
Y9025D01*
X55759Y9108D01*
X55739Y9171D01*
X55704Y9212D01*
X55669Y9247D01*
X55641Y9261D01*
X55607Y9268D01*
X55586Y9275D01*
X55579D01*
X55523Y9261D01*
X55475Y9240D01*
X55440Y9219D01*
X55433Y9205D01*
X55426D01*
X55253Y9393D01*
X55343Y9434D01*
X55419Y9455D01*
X55454Y9462D01*
X55502D01*
X55565Y9455D01*
X55620Y9441D01*
X55669Y9427D01*
X55704Y9407D01*
X55731Y9379D01*
X55752Y9365D01*
X55759Y9351D01*
X55766Y9344D01*
Y9462D01*
X55995D01*
Y8393D01*
D02*
G37*
G36*
X51609D02*
X51394D01*
Y9025D01*
X51387Y9108D01*
X51359Y9171D01*
X51332Y9212D01*
X51290Y9247D01*
X51255Y9261D01*
X51221Y9268D01*
X51200Y9275D01*
X51193D01*
X51137Y9261D01*
X51089Y9240D01*
X51054Y9219D01*
X51047Y9205D01*
X51040D01*
X50880Y9393D01*
X50957Y9434D01*
X51026Y9455D01*
X51047Y9462D01*
X51089D01*
X51165Y9455D01*
X51227Y9441D01*
X51283Y9427D01*
X51325Y9407D01*
X51352Y9379D01*
X51373Y9365D01*
X51387Y9351D01*
X51394Y9344D01*
Y9462D01*
X51609D01*
Y8393D01*
D02*
G37*
G36*
X56786Y9455D02*
X56856Y9441D01*
X56925Y9420D01*
X56974Y9393D01*
X57015Y9365D01*
X57043Y9344D01*
X57057Y9330D01*
X57064Y9323D01*
X56897Y9205D01*
X56828Y9247D01*
X56752Y9268D01*
X56724Y9275D01*
X56675D01*
X56599Y9268D01*
X56543Y9254D01*
X56509Y9226D01*
X56481Y9198D01*
X56467Y9171D01*
X56453Y9143D01*
Y9129D01*
Y9122D01*
Y9025D01*
X56821D01*
X56877Y9011D01*
X56925Y8997D01*
X56967Y8976D01*
X57029Y8928D01*
X57071Y8872D01*
X57099Y8810D01*
X57113Y8761D01*
X57120Y8726D01*
Y8720D01*
Y8713D01*
X57113Y8650D01*
X57106Y8602D01*
X57085Y8553D01*
X57057Y8518D01*
X56995Y8456D01*
X56918Y8414D01*
X56849Y8393D01*
X56786Y8380D01*
X56759Y8373D01*
X56724D01*
X56655Y8380D01*
X56599Y8393D01*
X56551Y8407D01*
X56516Y8428D01*
X56488Y8449D01*
X56467Y8470D01*
X56453Y8477D01*
Y8393D01*
X56238D01*
Y9122D01*
X56245Y9185D01*
X56259Y9233D01*
X56280Y9282D01*
X56308Y9316D01*
X56384Y9379D01*
X56467Y9420D01*
X56551Y9441D01*
X56627Y9455D01*
X56655Y9462D01*
X56696D01*
X56786Y9455D01*
D02*
G37*
G36*
X52386D02*
X52470Y9441D01*
X52539Y9420D01*
X52588Y9393D01*
X52622Y9365D01*
X52643Y9344D01*
X52657Y9330D01*
X52664Y9323D01*
X52491Y9205D01*
X52470Y9226D01*
X52442Y9247D01*
X52380Y9268D01*
X52345Y9275D01*
X52289D01*
X52220Y9268D01*
X52164Y9254D01*
X52130Y9226D01*
X52102Y9198D01*
X52088Y9171D01*
X52074Y9143D01*
Y9129D01*
Y9122D01*
Y9025D01*
X52435D01*
X52491Y9011D01*
X52539Y8997D01*
X52581Y8976D01*
X52643Y8928D01*
X52685Y8872D01*
X52713Y8810D01*
X52727Y8761D01*
X52733Y8726D01*
Y8720D01*
Y8713D01*
X52727Y8650D01*
X52720Y8602D01*
X52699Y8553D01*
X52671Y8518D01*
X52609Y8456D01*
X52539Y8414D01*
X52470Y8393D01*
X52407Y8380D01*
X52359Y8373D01*
X52345D01*
X52275Y8380D01*
X52213Y8393D01*
X52164Y8407D01*
X52130Y8428D01*
X52102Y8449D01*
X52088Y8470D01*
X52074Y8477D01*
Y8393D01*
X51852D01*
Y9122D01*
X51859Y9185D01*
X51873Y9233D01*
X51894Y9282D01*
X51921Y9316D01*
X51991Y9379D01*
X52067Y9420D01*
X52150Y9441D01*
X52220Y9455D01*
X52248Y9462D01*
X52289D01*
X52386Y9455D01*
D02*
G37*
G36*
X53934Y8393D02*
X53733D01*
X53525Y9157D01*
X53275Y8393D01*
X53074D01*
X52733Y9462D01*
X52983D01*
X53185Y8713D01*
X53421Y9462D01*
X53594D01*
X53844Y8713D01*
X54052Y9462D01*
X54274D01*
X53934Y8393D01*
D02*
G37*
G36*
X50506Y9455D02*
X50575Y9441D01*
X50638Y9414D01*
X50693Y9379D01*
X50735Y9337D01*
X50769Y9296D01*
X50825Y9198D01*
X50860Y9101D01*
X50874Y9018D01*
X50880Y8983D01*
Y8956D01*
Y8942D01*
Y8935D01*
X50874Y8838D01*
X50860Y8747D01*
X50832Y8671D01*
X50804Y8608D01*
X50762Y8553D01*
X50721Y8511D01*
X50679Y8470D01*
X50631Y8442D01*
X50540Y8400D01*
X50457Y8380D01*
X50429D01*
X50402Y8373D01*
X50381D01*
X50305Y8380D01*
X50235Y8400D01*
X50166Y8428D01*
X50110Y8463D01*
X50062Y8491D01*
X50027Y8518D01*
X50006Y8539D01*
X49999Y8546D01*
X50173Y8685D01*
X50200Y8643D01*
X50235Y8615D01*
X50277Y8595D01*
X50318Y8581D01*
X50353Y8574D01*
X50381Y8567D01*
X50409D01*
X50492Y8581D01*
X50547Y8608D01*
X50589Y8650D01*
X50624Y8699D01*
X50638Y8747D01*
X50644Y8789D01*
X50651Y8817D01*
Y8831D01*
X49971D01*
Y9025D01*
X49978Y9101D01*
X49992Y9171D01*
X50013Y9226D01*
X50041Y9275D01*
X50075Y9323D01*
X50117Y9358D01*
X50200Y9407D01*
X50284Y9441D01*
X50360Y9455D01*
X50388Y9462D01*
X50429D01*
X50506Y9455D01*
D02*
G37*
G36*
X54614Y9344D02*
X54663Y9386D01*
X54704Y9414D01*
X54753Y9434D01*
X54795Y9448D01*
X54829Y9455D01*
X54857Y9462D01*
X54885D01*
X54961Y9455D01*
X55031Y9441D01*
X55079Y9427D01*
X55121Y9407D01*
X55149Y9379D01*
X55169Y9365D01*
X55176Y9351D01*
X55183Y9344D01*
X55204Y9309D01*
X55225Y9254D01*
X55239Y9185D01*
X55246Y9115D01*
Y9046D01*
X55253Y8990D01*
Y8949D01*
Y8942D01*
Y8935D01*
Y8817D01*
X55239Y8726D01*
X55232Y8650D01*
X55218Y8595D01*
X55204Y8553D01*
X55197Y8532D01*
X55183Y8518D01*
Y8511D01*
X55142Y8463D01*
X55093Y8428D01*
X55045Y8407D01*
X54996Y8393D01*
X54954Y8380D01*
X54920Y8373D01*
X54885D01*
X54836Y8380D01*
X54781Y8393D01*
X54698Y8428D01*
X54663Y8449D01*
X54635Y8470D01*
X54621Y8477D01*
X54614Y8484D01*
Y8393D01*
X54406D01*
Y9913D01*
X54614D01*
Y9344D01*
D02*
G37*
%LPC*%
G36*
X57716Y10989D02*
X57709D01*
X57668Y10982D01*
X57633Y10975D01*
X57578Y10933D01*
X57543Y10878D01*
X57515Y10815D01*
X57501Y10753D01*
X57487Y10697D01*
Y10656D01*
Y10649D01*
Y10642D01*
Y10580D01*
X57494Y10531D01*
X57508Y10482D01*
X57522Y10441D01*
X57557Y10378D01*
X57598Y10337D01*
X57640Y10316D01*
X57675Y10302D01*
X57702Y10295D01*
X57709D01*
X57744Y10302D01*
X57779Y10309D01*
X57834Y10351D01*
X57869Y10406D01*
X57897Y10468D01*
X57911Y10531D01*
X57918Y10586D01*
X57925Y10628D01*
Y10635D01*
Y10642D01*
Y10704D01*
X57918Y10760D01*
X57904Y10802D01*
X57890Y10843D01*
X57855Y10906D01*
X57814Y10947D01*
X57779Y10968D01*
X57744Y10982D01*
X57716Y10989D01*
D02*
G37*
G36*
X56682D02*
X56675D01*
X56606Y10982D01*
X56551Y10954D01*
X56509Y10913D01*
X56474Y10871D01*
X56453Y10822D01*
X56439Y10788D01*
X56425Y10760D01*
Y10746D01*
X56897D01*
X56890Y10829D01*
X56863Y10885D01*
X56828Y10926D01*
X56786Y10961D01*
X56745Y10975D01*
X56710Y10982D01*
X56682Y10989D01*
D02*
G37*
G36*
X49264D02*
X49257D01*
X49187Y10982D01*
X49132Y10954D01*
X49090Y10913D01*
X49062Y10871D01*
X49041Y10822D01*
X49027Y10788D01*
X49020Y10760D01*
Y10746D01*
X49479D01*
X49472Y10829D01*
X49444Y10885D01*
X49409Y10926D01*
X49367Y10961D01*
X49326Y10975D01*
X49291Y10982D01*
X49264Y10989D01*
D02*
G37*
G36*
X58778D02*
X58757D01*
X58716Y10982D01*
X58681Y10975D01*
X58632Y10940D01*
X58598Y10899D01*
X58591Y10892D01*
Y10885D01*
X58570Y10864D01*
X58556Y10829D01*
X58542Y10746D01*
X58535Y10704D01*
Y10677D01*
Y10649D01*
Y10642D01*
Y10572D01*
X58542Y10517D01*
X58549Y10475D01*
X58563Y10441D01*
X58570Y10413D01*
X58584Y10392D01*
X58591Y10385D01*
Y10378D01*
X58605Y10351D01*
X58632Y10330D01*
X58688Y10309D01*
X58716Y10302D01*
X58736Y10295D01*
X58757D01*
X58806Y10302D01*
X58841Y10309D01*
X58875Y10323D01*
X58896Y10337D01*
X58924Y10364D01*
X58931Y10378D01*
X58973Y10468D01*
X58993Y10552D01*
Y10586D01*
X59000Y10614D01*
Y10635D01*
Y10642D01*
Y10704D01*
X58986Y10753D01*
X58979Y10795D01*
X58966Y10829D01*
X58952Y10857D01*
X58945Y10871D01*
X58931Y10885D01*
X58910Y10920D01*
X58882Y10947D01*
X58855Y10961D01*
X58827Y10975D01*
X58799Y10982D01*
X58778Y10989D01*
D02*
G37*
G36*
X53094D02*
X53074D01*
X53032Y10982D01*
X52997Y10975D01*
X52942Y10940D01*
X52914Y10899D01*
X52900Y10892D01*
Y10885D01*
X52886Y10864D01*
X52872Y10829D01*
X52858Y10746D01*
X52851Y10704D01*
Y10677D01*
Y10649D01*
Y10642D01*
Y10572D01*
X52858Y10517D01*
X52865Y10475D01*
X52872Y10441D01*
X52886Y10413D01*
X52893Y10392D01*
X52900Y10385D01*
Y10378D01*
X52921Y10351D01*
X52949Y10330D01*
X53004Y10309D01*
X53032Y10302D01*
X53053Y10295D01*
X53074D01*
X53122Y10302D01*
X53164Y10309D01*
X53192Y10323D01*
X53219Y10337D01*
X53247Y10364D01*
X53254Y10378D01*
X53268Y10413D01*
X53282Y10448D01*
X53296Y10538D01*
X53303Y10580D01*
Y10614D01*
Y10635D01*
Y10642D01*
Y10711D01*
X53296Y10760D01*
X53289Y10802D01*
X53275Y10836D01*
X53268Y10857D01*
X53261Y10878D01*
X53254Y10885D01*
X53233Y10920D01*
X53205Y10947D01*
X53178Y10961D01*
X53143Y10975D01*
X53115Y10982D01*
X53094Y10989D01*
D02*
G37*
G36*
X56752Y8831D02*
X56453D01*
Y8754D01*
X56460Y8692D01*
X56488Y8643D01*
X56530Y8615D01*
X56571Y8588D01*
X56620Y8574D01*
X56655Y8567D01*
X56696D01*
X56766Y8574D01*
X56814Y8588D01*
X56849Y8615D01*
X56870Y8643D01*
X56884Y8664D01*
X56897Y8692D01*
Y8706D01*
Y8713D01*
X56890Y8754D01*
X56870Y8782D01*
X56842Y8803D01*
X56807Y8817D01*
X56779Y8824D01*
X56752Y8831D01*
D02*
G37*
G36*
X52352D02*
X52074D01*
Y8754D01*
X52088Y8692D01*
X52116Y8643D01*
X52150Y8615D01*
X52199Y8588D01*
X52248Y8574D01*
X52282Y8567D01*
X52324D01*
X52386Y8574D01*
X52435Y8588D01*
X52463Y8615D01*
X52491Y8643D01*
X52504Y8664D01*
X52511Y8692D01*
Y8706D01*
Y8713D01*
X52504Y8754D01*
X52484Y8782D01*
X52449Y8803D01*
X52414Y8817D01*
X52386Y8824D01*
X52352Y8831D01*
D02*
G37*
G36*
X50436Y9275D02*
X50429D01*
X50360Y9261D01*
X50305Y9233D01*
X50263Y9198D01*
X50235Y9150D01*
X50214Y9101D01*
X50200Y9067D01*
X50193Y9039D01*
Y9025D01*
X50651D01*
X50644Y9108D01*
X50617Y9171D01*
X50582Y9212D01*
X50540Y9247D01*
X50499Y9261D01*
X50464Y9268D01*
X50436Y9275D01*
D02*
G37*
G36*
X54822D02*
X54815D01*
X54781Y9268D01*
X54746Y9261D01*
X54698Y9219D01*
X54663Y9171D01*
X54642Y9108D01*
X54621Y9046D01*
X54614Y8990D01*
Y8949D01*
Y8942D01*
Y8935D01*
Y8872D01*
X54621Y8824D01*
X54635Y8775D01*
X54642Y8740D01*
X54677Y8678D01*
X54711Y8636D01*
X54753Y8615D01*
X54781Y8602D01*
X54808Y8595D01*
X54815D01*
X54857Y8602D01*
X54892Y8608D01*
X54940Y8650D01*
X54982Y8706D01*
X55010Y8768D01*
X55024Y8831D01*
X55031Y8879D01*
X55037Y8921D01*
Y8928D01*
Y8935D01*
Y8997D01*
X55031Y9046D01*
X55017Y9094D01*
X55003Y9129D01*
X54968Y9191D01*
X54927Y9233D01*
X54885Y9254D01*
X54850Y9268D01*
X54822Y9275D01*
D02*
G37*
%LPD*%
D35*
X103645Y39619D02*
Y38095D01*
X103741Y37810D01*
X103836Y37715D01*
X104026Y37619D01*
X104312D01*
X104502Y37715D01*
X103645Y39333D02*
X103836Y39524D01*
X104026Y39619D01*
X104312D01*
X104502Y39524D01*
X104693Y39333D01*
X104788Y39048D01*
Y38857D01*
X104693Y38572D01*
X104502Y38381D01*
X104312Y38286D01*
X104026D01*
X103836Y38381D01*
X103645Y38572D01*
X102922Y40285D02*
X102826Y40190D01*
X102731Y40285D01*
X102826Y40381D01*
X102922Y40285D01*
X102826Y39619D02*
Y38286D01*
X102093Y40285D02*
Y38667D01*
X101998Y38381D01*
X101808Y38286D01*
X101617D01*
X102379Y39619D02*
X101712D01*
X101331Y40285D02*
Y38286D01*
Y39238D02*
X101046Y39524D01*
X100855Y39619D01*
X100570D01*
X100379Y39524D01*
X100284Y39238D01*
Y38286D01*
X99760Y39619D02*
Y38667D01*
X99665Y38381D01*
X99475Y38286D01*
X99189D01*
X98999Y38381D01*
X98713Y38667D01*
Y39619D02*
Y38286D01*
X98189Y40285D02*
Y38286D01*
Y39333D02*
X97999Y39524D01*
X97808Y39619D01*
X97523D01*
X97332Y39524D01*
X97142Y39333D01*
X97047Y39048D01*
Y38857D01*
X97142Y38572D01*
X97332Y38381D01*
X97523Y38286D01*
X97808D01*
X97999Y38381D01*
X98189Y38572D01*
X96523Y38476D02*
X96618Y38381D01*
X96523Y38286D01*
X96428Y38381D01*
X96523Y38476D01*
X94847Y39333D02*
X95038Y39524D01*
X95228Y39619D01*
X95514D01*
X95704Y39524D01*
X95894Y39333D01*
X95990Y39048D01*
Y38857D01*
X95894Y38572D01*
X95704Y38381D01*
X95514Y38286D01*
X95228D01*
X95038Y38381D01*
X94847Y38572D01*
X93943Y39619D02*
X94133Y39524D01*
X94323Y39333D01*
X94419Y39048D01*
Y38857D01*
X94323Y38572D01*
X94133Y38381D01*
X93943Y38286D01*
X93657D01*
X93467Y38381D01*
X93276Y38572D01*
X93181Y38857D01*
Y39048D01*
X93276Y39333D01*
X93467Y39524D01*
X93657Y39619D01*
X93943D01*
X92743D02*
Y38286D01*
Y39238D02*
X92457Y39524D01*
X92267Y39619D01*
X91981D01*
X91791Y39524D01*
X91695Y39238D01*
Y38286D01*
Y39238D02*
X91410Y39524D01*
X91219Y39619D01*
X90934D01*
X90743Y39524D01*
X90648Y39238D01*
Y38286D01*
X90020Y38000D02*
X88687Y40285D01*
X87411Y39619D02*
Y38286D01*
Y39333D02*
X87601Y39524D01*
X87792Y39619D01*
X88077D01*
X88268Y39524D01*
X88458Y39333D01*
X88553Y39048D01*
Y38857D01*
X88458Y38572D01*
X88268Y38381D01*
X88077Y38286D01*
X87792D01*
X87601Y38381D01*
X87411Y38572D01*
X85735Y39619D02*
Y38286D01*
Y39333D02*
X85925Y39524D01*
X86116Y39619D01*
X86401D01*
X86592Y39524D01*
X86782Y39333D01*
X86877Y39048D01*
Y38857D01*
X86782Y38572D01*
X86592Y38381D01*
X86401Y38286D01*
X86116D01*
X85925Y38381D01*
X85735Y38572D01*
X85202Y40285D02*
Y38286D01*
X84249Y39619D02*
X85202Y38667D01*
X84821Y39048D02*
X84154Y38286D01*
X82697Y39619D02*
Y38286D01*
Y39333D02*
X82888Y39524D01*
X83078Y39619D01*
X83364D01*
X83554Y39524D01*
X83745Y39333D01*
X83840Y39048D01*
Y38857D01*
X83745Y38572D01*
X83554Y38381D01*
X83364Y38286D01*
X83078D01*
X82888Y38381D01*
X82697Y38572D01*
X81879Y40285D02*
Y38667D01*
X81783Y38381D01*
X81593Y38286D01*
X81402D01*
X82164Y39619D02*
X81498D01*
X80069D02*
X81117Y38286D01*
Y39619D02*
X80069D01*
X81117Y38286D02*
X80069D01*
X79460Y40285D02*
X78413D01*
X78984Y39524D01*
X78698D01*
X78508Y39428D01*
X78413Y39333D01*
X78317Y39048D01*
Y38857D01*
X78413Y38572D01*
X78603Y38381D01*
X78889Y38286D01*
X79174D01*
X79460Y38381D01*
X79555Y38476D01*
X79650Y38667D01*
X77870Y38000D02*
X76537Y40285D01*
X76403D02*
Y38286D01*
X75261D01*
X74375Y40285D02*
Y38286D01*
X75042Y40285D02*
X73709D01*
X73471D02*
Y38286D01*
Y40285D02*
X72614D01*
X72328Y40190D01*
X72233Y40095D01*
X72138Y39905D01*
Y39714D01*
X72233Y39524D01*
X72328Y39428D01*
X72614Y39333D01*
X73471D01*
X72804D02*
X72138Y38286D01*
X71690Y39143D02*
X69976D01*
X69195Y40285D02*
X68148D01*
X68719Y39524D01*
X68434D01*
X68243Y39428D01*
X68148Y39333D01*
X68053Y39048D01*
Y38857D01*
X68148Y38572D01*
X68339Y38381D01*
X68624Y38286D01*
X68910D01*
X69195Y38381D01*
X69291Y38476D01*
X69386Y38667D01*
X67510Y39809D02*
Y39905D01*
X67415Y40095D01*
X67320Y40190D01*
X67129Y40285D01*
X66748D01*
X66558Y40190D01*
X66463Y40095D01*
X66368Y39905D01*
Y39714D01*
X66463Y39524D01*
X66653Y39238D01*
X67605Y38286D01*
X66272D01*
X64587Y39619D02*
X64682Y39333D01*
X64873Y39143D01*
X65158Y39048D01*
X65254D01*
X65539Y39143D01*
X65730Y39333D01*
X65825Y39619D01*
Y39714D01*
X65730Y40000D01*
X65539Y40190D01*
X65254Y40285D01*
X65158D01*
X64873Y40190D01*
X64682Y40000D01*
X64587Y39619D01*
Y39143D01*
X64682Y38667D01*
X64873Y38381D01*
X65158Y38286D01*
X65349D01*
X65634Y38381D01*
X65730Y38572D01*
X62521Y38286D02*
X63283Y40285D01*
X64044Y38286D01*
X63759Y38952D02*
X62806D01*
X62054Y40285D02*
Y38286D01*
X60912D01*
X59360Y40000D02*
X59550Y40190D01*
X59836Y40285D01*
X60216D01*
X60502Y40190D01*
X60693Y40000D01*
Y39809D01*
X60597Y39619D01*
X60502Y39524D01*
X60312Y39428D01*
X59740Y39238D01*
X59550Y39143D01*
X59455Y39048D01*
X59360Y38857D01*
Y38572D01*
X59550Y38381D01*
X59836Y38286D01*
X60216D01*
X60502Y38381D01*
X60693Y38572D01*
X58912Y39143D02*
X57198D01*
X56036Y40285D02*
X56322Y40190D01*
X56512Y39905D01*
X56608Y39428D01*
Y39143D01*
X56512Y38667D01*
X56322Y38381D01*
X56036Y38286D01*
X55846D01*
X55560Y38381D01*
X55370Y38667D01*
X55275Y39143D01*
Y39428D01*
X55370Y39905D01*
X55560Y40190D01*
X55846Y40285D01*
X56036D01*
X54827Y39905D02*
X54637Y40000D01*
X54351Y40285D01*
Y38286D01*
X53361Y39143D02*
X51647D01*
X49724Y40000D02*
X49914Y40190D01*
X50200Y40285D01*
X50581D01*
X50866Y40190D01*
X51057Y40000D01*
Y39809D01*
X50961Y39619D01*
X50866Y39524D01*
X50676Y39428D01*
X50104Y39238D01*
X49914Y39143D01*
X49819Y39048D01*
X49724Y38857D01*
Y38572D01*
X49914Y38381D01*
X50200Y38286D01*
X50581D01*
X50866Y38381D01*
X51057Y38572D01*
X48990Y40285D02*
Y38667D01*
X48895Y38381D01*
X48705Y38286D01*
X48514D01*
X49276Y39619D02*
X48610D01*
X48229Y39048D02*
X47086D01*
Y39238D01*
X47181Y39428D01*
X47276Y39524D01*
X47467Y39619D01*
X47752D01*
X47943Y39524D01*
X48133Y39333D01*
X48229Y39048D01*
Y38857D01*
X48133Y38572D01*
X47943Y38381D01*
X47752Y38286D01*
X47467D01*
X47276Y38381D01*
X47086Y38572D01*
X46657Y39619D02*
Y38286D01*
Y39238D02*
X46372Y39524D01*
X46181Y39619D01*
X45896D01*
X45705Y39524D01*
X45610Y39238D01*
Y38286D01*
Y39238D02*
X45325Y39524D01*
X45134Y39619D01*
X44848D01*
X44658Y39524D01*
X44563Y39238D01*
Y38286D01*
X43934Y39619D02*
Y38286D01*
Y39238D02*
X43649Y39524D01*
X43458Y39619D01*
X43172D01*
X42982Y39524D01*
X42887Y39238D01*
Y38286D01*
Y39238D02*
X42601Y39524D01*
X42411Y39619D01*
X42125D01*
X41935Y39524D01*
X41840Y39238D01*
Y38286D01*
X40068Y39619D02*
Y38286D01*
Y39333D02*
X40259Y39524D01*
X40449Y39619D01*
X40735D01*
X40925Y39524D01*
X41116Y39333D01*
X41211Y39048D01*
Y38857D01*
X41116Y38572D01*
X40925Y38381D01*
X40735Y38286D01*
X40449D01*
X40259Y38381D01*
X40068Y38572D01*
X38964Y40285D02*
X39154Y40190D01*
X39345Y40000D01*
X39440Y39809D01*
X39535Y39524D01*
Y39048D01*
X39440Y38762D01*
X39345Y38572D01*
X39154Y38381D01*
X38964Y38286D01*
X38583D01*
X38393Y38381D01*
X38202Y38572D01*
X38107Y38762D01*
X38012Y39048D01*
Y39524D01*
X38107Y39809D01*
X38202Y40000D01*
X38393Y40190D01*
X38583Y40285D01*
X38964D01*
X38678Y38667D02*
X38107Y38095D01*
X36879Y40285D02*
Y38286D01*
X37545Y40285D02*
X36212D01*
X106915Y4616D02*
Y2617D01*
Y4616D02*
X106249D01*
X105963Y4521D01*
X105772Y4330D01*
X105677Y4140D01*
X105582Y3854D01*
Y3378D01*
X105677Y3093D01*
X105772Y2902D01*
X105963Y2712D01*
X106249Y2617D01*
X106915D01*
X105134Y3378D02*
X103992D01*
Y3569D01*
X104087Y3759D01*
X104182Y3854D01*
X104373Y3950D01*
X104658D01*
X104849Y3854D01*
X105039Y3664D01*
X105134Y3378D01*
Y3188D01*
X105039Y2902D01*
X104849Y2712D01*
X104658Y2617D01*
X104373D01*
X104182Y2712D01*
X103992Y2902D01*
X102516Y3664D02*
X102611Y3854D01*
X102897Y3950D01*
X103183D01*
X103468Y3854D01*
X103563Y3664D01*
X103468Y3474D01*
X103278Y3378D01*
X102802Y3283D01*
X102611Y3188D01*
X102516Y2997D01*
Y2902D01*
X102611Y2712D01*
X102897Y2617D01*
X103183D01*
X103468Y2712D01*
X103563Y2902D01*
X101907Y4616D02*
X101811Y4521D01*
X101716Y4616D01*
X101811Y4711D01*
X101907Y4616D01*
X101811Y3950D02*
Y2617D01*
X100221Y3950D02*
Y2426D01*
X100317Y2141D01*
X100412Y2045D01*
X100602Y1950D01*
X100888D01*
X101078Y2045D01*
X100221Y3664D02*
X100412Y3854D01*
X100602Y3950D01*
X100888D01*
X101078Y3854D01*
X101269Y3664D01*
X101364Y3378D01*
Y3188D01*
X101269Y2902D01*
X101078Y2712D01*
X100888Y2617D01*
X100602D01*
X100412Y2712D01*
X100221Y2902D01*
X99688Y3950D02*
Y2617D01*
Y3569D02*
X99402Y3854D01*
X99212Y3950D01*
X98926D01*
X98736Y3854D01*
X98641Y3569D01*
Y2617D01*
X98117Y3378D02*
X96974D01*
Y3569D01*
X97070Y3759D01*
X97165Y3854D01*
X97355Y3950D01*
X97641D01*
X97831Y3854D01*
X98022Y3664D01*
X98117Y3378D01*
Y3188D01*
X98022Y2902D01*
X97831Y2712D01*
X97641Y2617D01*
X97355D01*
X97165Y2712D01*
X96974Y2902D01*
X95403Y4616D02*
Y2617D01*
Y3664D02*
X95594Y3854D01*
X95784Y3950D01*
X96070D01*
X96260Y3854D01*
X96451Y3664D01*
X96546Y3378D01*
Y3188D01*
X96451Y2902D01*
X96260Y2712D01*
X96070Y2617D01*
X95784D01*
X95594Y2712D01*
X95403Y2902D01*
X93299Y4616D02*
Y2617D01*
Y3664D02*
X93108Y3854D01*
X92918Y3950D01*
X92632D01*
X92442Y3854D01*
X92252Y3664D01*
X92156Y3378D01*
Y3188D01*
X92252Y2902D01*
X92442Y2712D01*
X92632Y2617D01*
X92918D01*
X93108Y2712D01*
X93299Y2902D01*
X91633Y3950D02*
X91061Y2617D01*
X90490Y3950D02*
X91061Y2617D01*
X91252Y2236D01*
X91442Y2045D01*
X91633Y1950D01*
X91728D01*
X87062Y2617D02*
X87824Y4616D01*
X88586Y2617D01*
X88300Y3283D02*
X87348D01*
X86596Y3950D02*
Y2617D01*
Y3569D02*
X86310Y3854D01*
X86120Y3950D01*
X85834D01*
X85644Y3854D01*
X85548Y3569D01*
Y2617D01*
X83882Y4616D02*
Y2617D01*
Y3664D02*
X84072Y3854D01*
X84263Y3950D01*
X84548D01*
X84739Y3854D01*
X84929Y3664D01*
X85025Y3378D01*
Y3188D01*
X84929Y2902D01*
X84739Y2712D01*
X84548Y2617D01*
X84263D01*
X84072Y2712D01*
X83882Y2902D01*
X83349Y3950D02*
Y2617D01*
Y3378D02*
X83254Y3664D01*
X83063Y3854D01*
X82873Y3950D01*
X82587D01*
X82406Y3378D02*
X81264D01*
Y3569D01*
X81359Y3759D01*
X81454Y3854D01*
X81644Y3950D01*
X81930D01*
X82120Y3854D01*
X82311Y3664D01*
X82406Y3378D01*
Y3188D01*
X82311Y2902D01*
X82120Y2712D01*
X81930Y2617D01*
X81644D01*
X81454Y2712D01*
X81264Y2902D01*
X80835Y3950D02*
X80454Y2617D01*
X80073Y3950D02*
X80454Y2617D01*
X80073Y3950D02*
X79692Y2617D01*
X79312Y3950D02*
X79692Y2617D01*
X77274Y4616D02*
Y2617D01*
X75941Y4616D02*
X77274Y3283D01*
X76798Y3759D02*
X75941Y2617D01*
X74351Y3950D02*
Y2617D01*
Y3664D02*
X74541Y3854D01*
X74731Y3950D01*
X75017D01*
X75208Y3854D01*
X75398Y3664D01*
X75493Y3378D01*
Y3188D01*
X75398Y2902D01*
X75208Y2712D01*
X75017Y2617D01*
X74731D01*
X74541Y2712D01*
X74351Y2902D01*
X73532Y4616D02*
Y2997D01*
X73437Y2712D01*
X73246Y2617D01*
X73056D01*
X73817Y3950D02*
X73151D01*
X71723D02*
X72770Y2617D01*
Y3950D02*
X71723D01*
X72770Y2617D02*
X71723D01*
X87241Y34050D02*
Y32050D01*
X86098D01*
X85212Y34050D02*
Y32050D01*
X85879Y34050D02*
X84546D01*
X84308D02*
Y32050D01*
Y34050D02*
X83451D01*
X83165Y33955D01*
X83070Y33859D01*
X82975Y33669D01*
Y33478D01*
X83070Y33288D01*
X83165Y33193D01*
X83451Y33097D01*
X84308D01*
X83641D02*
X82975Y32050D01*
X82527Y32907D02*
X80813D01*
X80033Y34050D02*
X78985D01*
X79557Y33288D01*
X79271D01*
X79080Y33193D01*
X78985Y33097D01*
X78890Y32812D01*
Y32621D01*
X78985Y32336D01*
X79176Y32145D01*
X79461Y32050D01*
X79747D01*
X80033Y32145D01*
X80128Y32241D01*
X80223Y32431D01*
X78347Y33574D02*
Y33669D01*
X78252Y33859D01*
X78157Y33955D01*
X77966Y34050D01*
X77586D01*
X77395Y33955D01*
X77300Y33859D01*
X77205Y33669D01*
Y33478D01*
X77300Y33288D01*
X77490Y33002D01*
X78443Y32050D01*
X77109D01*
X75424Y33383D02*
X75519Y33097D01*
X75710Y32907D01*
X75995Y32812D01*
X76091D01*
X76376Y32907D01*
X76567Y33097D01*
X76662Y33383D01*
Y33478D01*
X76567Y33764D01*
X76376Y33955D01*
X76091Y34050D01*
X75995D01*
X75710Y33955D01*
X75519Y33764D01*
X75424Y33383D01*
Y32907D01*
X75519Y32431D01*
X75710Y32145D01*
X75995Y32050D01*
X76186D01*
X76472Y32145D01*
X76567Y32336D01*
X73358Y32050D02*
X74120Y34050D01*
X74881Y32050D01*
X74596Y32717D02*
X73644D01*
X72891Y34050D02*
Y32050D01*
X71749D01*
X70197Y33764D02*
X70387Y33955D01*
X70673Y34050D01*
X71054D01*
X71339Y33955D01*
X71530Y33764D01*
Y33574D01*
X71434Y33383D01*
X71339Y33288D01*
X71149Y33193D01*
X70578Y33002D01*
X70387Y32907D01*
X70292Y32812D01*
X70197Y32621D01*
Y32336D01*
X70387Y32145D01*
X70673Y32050D01*
X71054D01*
X71339Y32145D01*
X71530Y32336D01*
X69749Y32907D02*
X68035D01*
X66874Y34050D02*
X67159Y33955D01*
X67350Y33669D01*
X67445Y33193D01*
Y32907D01*
X67350Y32431D01*
X67159Y32145D01*
X66874Y32050D01*
X66683D01*
X66398Y32145D01*
X66207Y32431D01*
X66112Y32907D01*
Y33193D01*
X66207Y33669D01*
X66398Y33955D01*
X66683Y34050D01*
X66874D01*
X65664Y33669D02*
X65474Y33764D01*
X65188Y34050D01*
Y32050D01*
X88093Y30595D02*
X88283Y30500D01*
X88474Y30309D01*
X88569Y30119D01*
X88664Y29833D01*
Y29357D01*
X88569Y29072D01*
X88474Y28881D01*
X88283Y28691D01*
X88093Y28595D01*
X87712D01*
X87522Y28691D01*
X87331Y28881D01*
X87236Y29072D01*
X87141Y29357D01*
Y29833D01*
X87236Y30119D01*
X87331Y30309D01*
X87522Y30500D01*
X87712Y30595D01*
X88093D01*
X87807Y28976D02*
X87236Y28405D01*
X86674Y29928D02*
X86293Y28595D01*
X85912Y29928D02*
X86293Y28595D01*
X85912Y29928D02*
X85532Y28595D01*
X85151Y29928D02*
X85532Y28595D01*
X84494Y30595D02*
X84398Y30500D01*
X84303Y30595D01*
X84398Y30690D01*
X84494Y30595D01*
X84398Y29928D02*
Y28595D01*
X83760Y30595D02*
X83665Y30500D01*
X83570Y30595D01*
X83665Y30690D01*
X83760Y30595D01*
X83665Y29928D02*
Y28595D01*
X82075Y29643D02*
X82266Y29833D01*
X82456Y29928D01*
X82742D01*
X82932Y29833D01*
X83122Y29643D01*
X83218Y29357D01*
Y29167D01*
X83122Y28881D01*
X82932Y28691D01*
X82742Y28595D01*
X82456D01*
X82266Y28691D01*
X82075Y28881D01*
X81647Y28310D02*
X80314Y30595D01*
X78847Y30309D02*
X79038Y30500D01*
X79323Y30595D01*
X79704D01*
X79990Y30500D01*
X80180Y30309D01*
Y30119D01*
X80085Y29928D01*
X79990Y29833D01*
X79799Y29738D01*
X79228Y29548D01*
X79038Y29452D01*
X78942Y29357D01*
X78847Y29167D01*
Y28881D01*
X79038Y28691D01*
X79323Y28595D01*
X79704D01*
X79990Y28691D01*
X80180Y28881D01*
X78114Y30595D02*
Y28976D01*
X78019Y28691D01*
X77828Y28595D01*
X77638D01*
X78400Y29928D02*
X77733D01*
X77352Y29357D02*
X76210D01*
Y29548D01*
X76305Y29738D01*
X76400Y29833D01*
X76591Y29928D01*
X76876D01*
X77067Y29833D01*
X77257Y29643D01*
X77352Y29357D01*
Y29167D01*
X77257Y28881D01*
X77067Y28691D01*
X76876Y28595D01*
X76591D01*
X76400Y28691D01*
X76210Y28881D01*
X75781Y29928D02*
Y28595D01*
Y29548D02*
X75496Y29833D01*
X75305Y29928D01*
X75020D01*
X74829Y29833D01*
X74734Y29548D01*
Y28595D01*
Y29548D02*
X74448Y29833D01*
X74258Y29928D01*
X73972D01*
X73782Y29833D01*
X73686Y29548D01*
Y28595D01*
X73058Y29928D02*
Y28595D01*
Y29548D02*
X72772Y29833D01*
X72582Y29928D01*
X72296D01*
X72106Y29833D01*
X72011Y29548D01*
Y28595D01*
Y29548D02*
X71725Y29833D01*
X71535Y29928D01*
X71249D01*
X71058Y29833D01*
X70963Y29548D01*
Y28595D01*
X69192Y29928D02*
Y28595D01*
Y29643D02*
X69383Y29833D01*
X69573Y29928D01*
X69859D01*
X70049Y29833D01*
X70240Y29643D01*
X70335Y29357D01*
Y29167D01*
X70240Y28881D01*
X70049Y28691D01*
X69859Y28595D01*
X69573D01*
X69383Y28691D01*
X69192Y28881D01*
X68088Y30595D02*
X68278Y30500D01*
X68468Y30309D01*
X68564Y30119D01*
X68659Y29833D01*
Y29357D01*
X68564Y29072D01*
X68468Y28881D01*
X68278Y28691D01*
X68088Y28595D01*
X67707D01*
X67516Y28691D01*
X67326Y28881D01*
X67231Y29072D01*
X67136Y29357D01*
Y29833D01*
X67231Y30119D01*
X67326Y30309D01*
X67516Y30500D01*
X67707Y30595D01*
X68088D01*
X67802Y28976D02*
X67231Y28405D01*
X66002Y30595D02*
Y28595D01*
X66669Y30595D02*
X65336D01*
X82670Y26950D02*
Y24950D01*
Y26950D02*
X81813D01*
X81528Y26855D01*
X81432Y26759D01*
X81337Y26569D01*
Y26379D01*
X81432Y26188D01*
X81528Y26093D01*
X81813Y25998D01*
X82670D02*
X81813D01*
X81528Y25903D01*
X81432Y25807D01*
X81337Y25617D01*
Y25331D01*
X81432Y25141D01*
X81528Y25045D01*
X81813Y24950D01*
X82670D01*
X80890Y26283D02*
Y24950D01*
Y25712D02*
X80794Y25998D01*
X80604Y26188D01*
X80414Y26283D01*
X80128D01*
X79947Y25712D02*
X78804D01*
Y25903D01*
X78900Y26093D01*
X78995Y26188D01*
X79185Y26283D01*
X79471D01*
X79661Y26188D01*
X79852Y25998D01*
X79947Y25712D01*
Y25522D01*
X79852Y25236D01*
X79661Y25045D01*
X79471Y24950D01*
X79185D01*
X78995Y25045D01*
X78804Y25236D01*
X77233Y26283D02*
Y24950D01*
Y25998D02*
X77424Y26188D01*
X77614Y26283D01*
X77900D01*
X78090Y26188D01*
X78281Y25998D01*
X78376Y25712D01*
Y25522D01*
X78281Y25236D01*
X78090Y25045D01*
X77900Y24950D01*
X77614D01*
X77424Y25045D01*
X77233Y25236D01*
X76700Y26950D02*
Y24950D01*
X75748Y26283D02*
X76700Y25331D01*
X76319Y25712D02*
X75653Y24950D01*
X74862Y26283D02*
X75053Y26188D01*
X75243Y25998D01*
X75339Y25712D01*
Y25522D01*
X75243Y25236D01*
X75053Y25045D01*
X74862Y24950D01*
X74577D01*
X74386Y25045D01*
X74196Y25236D01*
X74101Y25522D01*
Y25712D01*
X74196Y25998D01*
X74386Y26188D01*
X74577Y26283D01*
X74862D01*
X73663D02*
Y25331D01*
X73567Y25045D01*
X73377Y24950D01*
X73091D01*
X72901Y25045D01*
X72615Y25331D01*
Y26283D02*
Y24950D01*
X71806Y26950D02*
Y25331D01*
X71711Y25045D01*
X71520Y24950D01*
X71330D01*
X72092Y26283D02*
X71425D01*
X30269Y25229D02*
Y22730D01*
X29626Y24634D02*
Y24753D01*
X29507Y24991D01*
X29388Y25110D01*
X29150Y25229D01*
X28674D01*
X28436Y25110D01*
X28317Y24991D01*
X28198Y24753D01*
Y24515D01*
X28317Y24277D01*
X28555Y23920D01*
X29745Y22730D01*
X28079D01*
X25734Y24634D02*
X25853Y24872D01*
X26091Y25110D01*
X26329Y25229D01*
X26805D01*
X27044Y25110D01*
X27281Y24872D01*
X27400Y24634D01*
X27520Y24277D01*
Y23682D01*
X27400Y23325D01*
X27281Y23087D01*
X27044Y22849D01*
X26805Y22730D01*
X26329D01*
X26091Y22849D01*
X25853Y23087D01*
X25734Y23325D01*
X21164Y22730D02*
X22116Y25229D01*
X23068Y22730D01*
X22711Y23563D02*
X21521D01*
X20581Y25229D02*
Y22730D01*
Y25229D02*
X19747D01*
X19390Y25110D01*
X19152Y24872D01*
X19033Y24634D01*
X18914Y24277D01*
Y23682D01*
X19033Y23325D01*
X19152Y23087D01*
X19390Y22849D01*
X19747Y22730D01*
X20581D01*
X18355Y25229D02*
Y22730D01*
Y25229D02*
X17522D01*
X17165Y25110D01*
X16927Y24872D01*
X16808Y24634D01*
X16689Y24277D01*
Y23682D01*
X16808Y23325D01*
X16927Y23087D01*
X17165Y22849D01*
X17522Y22730D01*
X18355D01*
X16129Y25229D02*
Y22730D01*
Y25229D02*
X15058D01*
X14701Y25110D01*
X14582Y24991D01*
X14463Y24753D01*
Y24515D01*
X14582Y24277D01*
X14701Y24158D01*
X15058Y24039D01*
X16129D01*
X15296D02*
X14463Y22730D01*
X13784Y24396D02*
X13903Y24277D01*
X13784Y24158D01*
X13665Y24277D01*
X13784Y24396D01*
Y22968D02*
X13903Y22849D01*
X13784Y22730D01*
X13665Y22849D01*
X13784Y22968D01*
X25169Y21270D02*
X25526Y21151D01*
X25764Y20794D01*
X25883Y20199D01*
Y19842D01*
X25764Y19247D01*
X25526Y18890D01*
X25169Y18771D01*
X24931D01*
X24574Y18890D01*
X24336Y19247D01*
X24217Y19842D01*
Y20199D01*
X24336Y20794D01*
X24574Y21151D01*
X24931Y21270D01*
X25169D01*
X23657Y20437D02*
X22348Y18771D01*
Y20437D02*
X23657Y18771D01*
X21705Y20675D02*
Y20794D01*
X21586Y21032D01*
X21467Y21151D01*
X21229Y21270D01*
X20753D01*
X20515Y21151D01*
X20396Y21032D01*
X20277Y20794D01*
Y20556D01*
X20396Y20318D01*
X20634Y19961D01*
X21824Y18771D01*
X20158D01*
X18051Y20437D02*
X18170Y20080D01*
X18408Y19842D01*
X18766Y19723D01*
X18884D01*
X19242Y19842D01*
X19480Y20080D01*
X19599Y20437D01*
Y20556D01*
X19480Y20913D01*
X19242Y21151D01*
X18884Y21270D01*
X18766D01*
X18408Y21151D01*
X18170Y20913D01*
X18051Y20437D01*
Y19842D01*
X18170Y19247D01*
X18408Y18890D01*
X18766Y18771D01*
X19004D01*
X19361Y18890D01*
X19480Y19128D01*
M02*
