G04*
G04 #@! TF.GenerationSoftware,Altium Limited,Altium Designer,20.1.14 (287)*
G04*
G04 Layer_Physical_Order=2*
G04 Layer_Color=16711680*
%FSLAX25Y25*%
%MOIN*%
G70*
G04*
G04 #@! TF.SameCoordinates,A1E22FD0-206B-4EE7-9784-6D1C4D5CB387*
G04*
G04*
G04 #@! TF.FilePolarity,Positive*
G04*
G01*
G75*
%ADD12C,0.01000*%
%ADD33C,0.01200*%
%ADD34C,0.03000*%
G36*
X108676Y1529D02*
X1529Y1529D01*
X1529Y41146D01*
X108676Y41146D01*
X108676Y1529D01*
D02*
G37*
%LPC*%
G36*
X23819Y37622D02*
X22999Y37459D01*
X22305Y36994D01*
X21841Y36300D01*
X21678Y35480D01*
X21841Y34661D01*
X22305Y33966D01*
X22999Y33502D01*
X23819Y33339D01*
X24162Y33407D01*
X31696Y25873D01*
X31627Y25531D01*
X31790Y24711D01*
X32254Y24017D01*
X32717Y23708D01*
Y5837D01*
X32599Y5758D01*
X32135Y5064D01*
X31972Y4244D01*
X32135Y3425D01*
X32599Y2730D01*
X33294Y2266D01*
X34113Y2103D01*
X34932Y2266D01*
X35627Y2730D01*
X36091Y3425D01*
X36254Y4244D01*
X36091Y5064D01*
X35627Y5758D01*
X35164Y6067D01*
Y23938D01*
X35282Y24017D01*
X35747Y24711D01*
X35910Y25531D01*
X35842Y25873D01*
X36245Y26276D01*
X55491D01*
X61094Y20673D01*
X61026Y20331D01*
X61189Y19511D01*
X61653Y18817D01*
X61795Y18722D01*
Y15239D01*
X61205Y14845D01*
X60741Y14150D01*
X60578Y13331D01*
X60741Y12511D01*
X61205Y11817D01*
X61900Y11353D01*
X62719Y11190D01*
X62844Y11214D01*
X63269Y10789D01*
X63178Y10331D01*
X63270Y9868D01*
X62868Y9466D01*
X45595D01*
X45333Y9858D01*
X44940Y10121D01*
Y20224D01*
X45333Y20486D01*
X45797Y21181D01*
X45960Y22000D01*
X45797Y22819D01*
X45333Y23514D01*
X44638Y23978D01*
X43819Y24141D01*
X43000Y23978D01*
X42305Y23514D01*
X41841Y22819D01*
X41678Y22000D01*
X41841Y21181D01*
X42305Y20486D01*
X42697Y20224D01*
Y10121D01*
X42305Y9858D01*
X41841Y9164D01*
X41678Y8344D01*
X41841Y7525D01*
X42305Y6830D01*
X43000Y6366D01*
X43819Y6203D01*
X44638Y6366D01*
X45333Y6830D01*
X45595Y7223D01*
X63332D01*
X63332Y7223D01*
X63762Y7308D01*
X64126Y7551D01*
X64856Y8282D01*
X65319Y8190D01*
X66138Y8353D01*
X66833Y8817D01*
X67297Y9511D01*
X67460Y10331D01*
X67361Y10831D01*
X67732Y11331D01*
X82068D01*
Y31331D01*
X66889D01*
Y33901D01*
X67297Y34511D01*
X67460Y35331D01*
X67297Y36150D01*
X66833Y36845D01*
X66138Y37309D01*
X65319Y37472D01*
X64499Y37309D01*
X63805Y36845D01*
X63341Y36150D01*
X63178Y35331D01*
X63341Y34511D01*
X63805Y33817D01*
X64499Y33353D01*
X64646Y33323D01*
Y22399D01*
X64205Y22163D01*
X63987Y22309D01*
X63167Y22472D01*
X62825Y22404D01*
X56863Y28365D01*
X56466Y28630D01*
X55998Y28723D01*
X35738D01*
X35270Y28630D01*
X34873Y28365D01*
X34111Y27604D01*
X33768Y27672D01*
X33426Y27604D01*
X25892Y35138D01*
X25960Y35480D01*
X25797Y36300D01*
X25333Y36994D01*
X24638Y37459D01*
X23819Y37622D01*
D02*
G37*
%LPD*%
D12*
X63332Y8344D02*
X65767Y10779D01*
X44333Y8344D02*
X63332D01*
X43819Y7831D02*
X44333Y8344D01*
X43819Y7831D02*
Y22000D01*
X65767Y10779D02*
Y17331D01*
X65319Y34789D02*
X65767Y34341D01*
X65319Y34789D02*
Y35331D01*
X65767Y17331D02*
Y34341D01*
D33*
X33768Y25531D02*
X35738Y27500D01*
X55998D02*
X63167Y20331D01*
X35738Y27500D02*
X55998D01*
X33768Y25531D02*
X33941Y25359D01*
Y4417D02*
Y25359D01*
Y4417D02*
X34113Y4244D01*
X23819Y35480D02*
X33768Y25531D01*
X62719Y13331D02*
X63019Y13631D01*
Y20031D01*
D34*
X53000Y24000D02*
D03*
X84662Y22000D02*
D03*
X71345Y7598D02*
D03*
X105678Y22000D02*
D03*
X91701Y33779D02*
D03*
Y10158D02*
D03*
X18504Y10221D02*
D03*
Y33843D02*
D03*
X4527Y22000D02*
D03*
X43819Y8344D02*
D03*
X34113Y4244D02*
D03*
X43819Y22000D02*
D03*
X33768Y25531D02*
D03*
X23819Y35480D02*
D03*
X65319Y35331D02*
D03*
X63167Y20331D02*
D03*
X65767Y17331D02*
D03*
X62719Y13331D02*
D03*
X65319Y10331D02*
D03*
M02*
