G04*
G04 #@! TF.GenerationSoftware,Altium Limited,Altium Designer,20.1.14 (287)*
G04*
G04 Layer_Physical_Order=1*
G04 Layer_Color=255*
%FSLAX25Y25*%
%MOIN*%
G70*
G04*
G04 #@! TF.SameCoordinates,A1E22FD0-206B-4EE7-9784-6D1C4D5CB387*
G04*
G04*
G04 #@! TF.FilePolarity,Positive*
G04*
G01*
G75*
%ADD12C,0.01000*%
%ADD14C,0.00800*%
G04:AMPARAMS|DCode=25|XSize=47.24mil|YSize=70.87mil|CornerRadius=11.81mil|HoleSize=0mil|Usage=FLASHONLY|Rotation=270.000|XOffset=0mil|YOffset=0mil|HoleType=Round|Shape=RoundedRectangle|*
%AMROUNDEDRECTD25*
21,1,0.04724,0.04724,0,0,270.0*
21,1,0.02362,0.07087,0,0,270.0*
1,1,0.02362,-0.02362,-0.01181*
1,1,0.02362,-0.02362,0.01181*
1,1,0.02362,0.02362,0.01181*
1,1,0.02362,0.02362,-0.01181*
%
%ADD25ROUNDEDRECTD25*%
G04:AMPARAMS|DCode=26|XSize=23.62mil|YSize=61.02mil|CornerRadius=5.91mil|HoleSize=0mil|Usage=FLASHONLY|Rotation=90.000|XOffset=0mil|YOffset=0mil|HoleType=Round|Shape=RoundedRectangle|*
%AMROUNDEDRECTD26*
21,1,0.02362,0.04921,0,0,90.0*
21,1,0.01181,0.06102,0,0,90.0*
1,1,0.01181,0.02461,0.00591*
1,1,0.01181,0.02461,-0.00591*
1,1,0.01181,-0.02461,-0.00591*
1,1,0.01181,-0.02461,0.00591*
%
%ADD26ROUNDEDRECTD26*%
G04:AMPARAMS|DCode=27|XSize=35.43mil|YSize=21.65mil|CornerRadius=5.41mil|HoleSize=0mil|Usage=FLASHONLY|Rotation=180.000|XOffset=0mil|YOffset=0mil|HoleType=Round|Shape=RoundedRectangle|*
%AMROUNDEDRECTD27*
21,1,0.03543,0.01083,0,0,180.0*
21,1,0.02461,0.02165,0,0,180.0*
1,1,0.01083,-0.01230,0.00541*
1,1,0.01083,0.01230,0.00541*
1,1,0.01083,0.01230,-0.00541*
1,1,0.01083,-0.01230,-0.00541*
%
%ADD27ROUNDEDRECTD27*%
G04:AMPARAMS|DCode=28|XSize=35.43mil|YSize=17.72mil|CornerRadius=4.43mil|HoleSize=0mil|Usage=FLASHONLY|Rotation=180.000|XOffset=0mil|YOffset=0mil|HoleType=Round|Shape=RoundedRectangle|*
%AMROUNDEDRECTD28*
21,1,0.03543,0.00886,0,0,180.0*
21,1,0.02657,0.01772,0,0,180.0*
1,1,0.00886,-0.01329,0.00443*
1,1,0.00886,0.01329,0.00443*
1,1,0.00886,0.01329,-0.00443*
1,1,0.00886,-0.01329,-0.00443*
%
%ADD28ROUNDEDRECTD28*%
G04:AMPARAMS|DCode=29|XSize=13.78mil|YSize=45mil|CornerRadius=3.45mil|HoleSize=0mil|Usage=FLASHONLY|Rotation=180.000|XOffset=0mil|YOffset=0mil|HoleType=Round|Shape=RoundedRectangle|*
%AMROUNDEDRECTD29*
21,1,0.01378,0.03811,0,0,180.0*
21,1,0.00689,0.04500,0,0,180.0*
1,1,0.00689,-0.00345,0.01906*
1,1,0.00689,0.00345,0.01906*
1,1,0.00689,0.00345,-0.01906*
1,1,0.00689,-0.00345,-0.01906*
%
%ADD29ROUNDEDRECTD29*%
G04:AMPARAMS|DCode=30|XSize=33.47mil|YSize=23.62mil|CornerRadius=5.91mil|HoleSize=0mil|Usage=FLASHONLY|Rotation=180.000|XOffset=0mil|YOffset=0mil|HoleType=Round|Shape=RoundedRectangle|*
%AMROUNDEDRECTD30*
21,1,0.03347,0.01181,0,0,180.0*
21,1,0.02165,0.02362,0,0,180.0*
1,1,0.01181,-0.01083,0.00591*
1,1,0.01181,0.01083,0.00591*
1,1,0.01181,0.01083,-0.00591*
1,1,0.01181,-0.01083,-0.00591*
%
%ADD30ROUNDEDRECTD30*%
G04:AMPARAMS|DCode=31|XSize=39.37mil|YSize=43.31mil|CornerRadius=9.84mil|HoleSize=0mil|Usage=FLASHONLY|Rotation=180.000|XOffset=0mil|YOffset=0mil|HoleType=Round|Shape=RoundedRectangle|*
%AMROUNDEDRECTD31*
21,1,0.03937,0.02362,0,0,180.0*
21,1,0.01968,0.04331,0,0,180.0*
1,1,0.01968,-0.00984,0.01181*
1,1,0.01968,0.00984,0.01181*
1,1,0.01968,0.00984,-0.01181*
1,1,0.01968,-0.00984,-0.01181*
%
%ADD31ROUNDEDRECTD31*%
G04:AMPARAMS|DCode=32|XSize=25mil|YSize=45mil|CornerRadius=6.25mil|HoleSize=0mil|Usage=FLASHONLY|Rotation=90.000|XOffset=0mil|YOffset=0mil|HoleType=Round|Shape=RoundedRectangle|*
%AMROUNDEDRECTD32*
21,1,0.02500,0.03250,0,0,90.0*
21,1,0.01250,0.04500,0,0,90.0*
1,1,0.01250,0.01625,0.00625*
1,1,0.01250,0.01625,-0.00625*
1,1,0.01250,-0.01625,-0.00625*
1,1,0.01250,-0.01625,0.00625*
%
%ADD32ROUNDEDRECTD32*%
%ADD33C,0.01200*%
%ADD34C,0.03000*%
G36*
X22797Y37323D02*
X22305Y36994D01*
X21841Y36300D01*
X21678Y35480D01*
X21841Y34661D01*
X22305Y33966D01*
X22999Y33502D01*
X23819Y33339D01*
X24638Y33502D01*
X25333Y33966D01*
X25724Y34552D01*
X26719D01*
Y34496D01*
X26842Y33878D01*
X27193Y33354D01*
X27716Y33004D01*
X28335Y32881D01*
X30303D01*
X30650Y32950D01*
X30896Y32489D01*
X30547Y32140D01*
X30303Y32188D01*
X29819D01*
Y28984D01*
X28819D01*
Y32188D01*
X28335D01*
X27560Y32035D01*
X26904Y31596D01*
X26465Y30940D01*
X26320Y30208D01*
X22701D01*
X22233Y30115D01*
X21836Y29849D01*
X21728Y29741D01*
X17323D01*
X16858Y29649D01*
X16465Y29386D01*
X16201Y28992D01*
X16109Y28528D01*
Y27347D01*
X16201Y26882D01*
X16465Y26488D01*
X16858Y26225D01*
X16866Y26223D01*
Y25714D01*
X16858Y25712D01*
X16465Y25449D01*
X16201Y25055D01*
X16109Y24590D01*
Y23410D01*
X16201Y22945D01*
X16465Y22551D01*
X16858Y22288D01*
X16866Y22286D01*
Y21777D01*
X16858Y21775D01*
X16465Y21512D01*
X16201Y21118D01*
X16194Y21083D01*
X14922D01*
X13766Y22239D01*
Y36816D01*
X14773Y37823D01*
X22645D01*
X22797Y37323D01*
D02*
G37*
G36*
X45390D02*
X45290Y37174D01*
X45195Y36696D01*
Y35446D01*
X45290Y34968D01*
X45561Y34563D01*
X45966Y34292D01*
X46444Y34197D01*
X49694D01*
X50172Y34292D01*
X50577Y34563D01*
X50767Y34847D01*
X56719D01*
Y34496D01*
X56842Y33878D01*
X57192Y33354D01*
X57717Y33004D01*
X58335Y32881D01*
X60303D01*
X60921Y33004D01*
X61445Y33354D01*
X61796Y33878D01*
X61896Y34382D01*
X63427D01*
X63805Y33817D01*
X64499Y33353D01*
X65319Y33190D01*
X66138Y33353D01*
X66833Y33817D01*
X67095Y34209D01*
X71854D01*
X73526Y32538D01*
X73890Y32294D01*
X73919Y32289D01*
X74415Y31793D01*
X74224Y31331D01*
X66133D01*
Y30004D01*
X65435D01*
X65269Y30115D01*
X64801Y30208D01*
X62318D01*
X62172Y30940D01*
X61734Y31596D01*
X61077Y32035D01*
X60303Y32188D01*
X59819D01*
Y28984D01*
Y25780D01*
X60303D01*
X61077Y25934D01*
X61734Y26373D01*
X62172Y27029D01*
X62318Y27761D01*
X64801D01*
X65269Y27854D01*
X65435Y27965D01*
X66133D01*
Y23020D01*
X65607D01*
X64575Y24052D01*
X64245Y24273D01*
X63854Y24350D01*
X56319D01*
X55929Y24273D01*
X55598Y24052D01*
X54305Y22759D01*
X54084Y22428D01*
X54006Y22038D01*
Y18621D01*
X53422Y18036D01*
X52873Y18075D01*
X52856Y18100D01*
X52511Y18331D01*
X52502Y18333D01*
X52460Y18746D01*
X52474Y18848D01*
X52829Y19085D01*
X53081Y19462D01*
X53170Y19907D01*
Y20990D01*
X53081Y21436D01*
X52829Y21813D01*
X52451Y22065D01*
X52006Y22154D01*
X49545D01*
X49100Y22065D01*
X48879Y21917D01*
X47040Y23756D01*
X47040Y23756D01*
X45575Y25221D01*
X45245Y25442D01*
X44854Y25520D01*
X37279D01*
X36889Y25442D01*
X36795Y25379D01*
X36476Y25767D01*
X37425Y26717D01*
X40194D01*
X40672Y26812D01*
X41077Y27082D01*
X41348Y27488D01*
X41443Y27966D01*
Y29216D01*
X41348Y29693D01*
X41190Y29930D01*
X41276Y30436D01*
X41332Y30530D01*
X41485Y30594D01*
X44354Y27725D01*
X44751Y27460D01*
X45219Y27367D01*
X45371D01*
X45561Y27082D01*
X45966Y26812D01*
X46444Y26717D01*
X49694D01*
X50172Y26812D01*
X50577Y27082D01*
X50767Y27367D01*
X56398D01*
X56466Y27029D01*
X56904Y26373D01*
X57560Y25934D01*
X58335Y25780D01*
X58819D01*
Y28984D01*
Y32188D01*
X58335D01*
X57560Y32035D01*
X56904Y31596D01*
X56466Y30940D01*
X56312Y30165D01*
Y29814D01*
X50767D01*
X50577Y30099D01*
X50172Y30369D01*
X49694Y30465D01*
X46444D01*
X45966Y30369D01*
X45561Y30099D01*
X45452Y30088D01*
X42344Y33196D01*
X41947Y33461D01*
X41479Y33554D01*
X41267D01*
X41077Y33839D01*
X40985Y33900D01*
Y34501D01*
X41077Y34563D01*
X41348Y34968D01*
X41443Y35446D01*
Y36696D01*
X41348Y37174D01*
X41248Y37323D01*
X41515Y37823D01*
X45122D01*
X45390Y37323D01*
D02*
G37*
G36*
X86747Y24299D02*
Y23346D01*
X86839Y22882D01*
X87103Y22488D01*
X87497Y22225D01*
X87504Y22223D01*
Y21714D01*
X87497Y21712D01*
X87103Y21449D01*
X86839Y21055D01*
X86747Y20591D01*
Y19926D01*
X82595Y15773D01*
X82133Y15965D01*
Y28261D01*
X82595Y28452D01*
X86747Y24299D01*
D02*
G37*
G36*
X108676Y36665D02*
X108289Y36347D01*
X108040Y36397D01*
X106178D01*
Y32992D01*
Y29587D01*
X108040D01*
X108289Y29637D01*
X108676Y29320D01*
X108676Y14617D01*
X108289Y14300D01*
X108040Y14350D01*
X106178D01*
Y10945D01*
Y7540D01*
X108040D01*
X108289Y7590D01*
X108676Y7272D01*
X108676Y1529D01*
X1529Y1529D01*
Y7335D01*
X1916Y7653D01*
X2165Y7603D01*
X4028D01*
Y11008D01*
Y14413D01*
X2165D01*
X1916Y14363D01*
X1529Y14680D01*
Y29383D01*
X1916Y29700D01*
X2165Y29650D01*
X4028D01*
Y33055D01*
Y36460D01*
X2165D01*
X1916Y36410D01*
X1529Y36728D01*
Y41146D01*
X11910D01*
X12117Y40646D01*
X10626Y39154D01*
X10405Y38823D01*
X10327Y38433D01*
Y18342D01*
X10405Y17952D01*
X10626Y17621D01*
X11669Y16578D01*
X11669Y16578D01*
X12842Y15405D01*
X13173Y15184D01*
X13563Y15106D01*
X16194D01*
X16201Y15071D01*
X16465Y14677D01*
X16858Y14414D01*
X17323Y14322D01*
X22244D01*
X22709Y14414D01*
X23102Y14677D01*
X23366Y15071D01*
X23373Y15106D01*
X31121D01*
X32267Y13960D01*
X32598Y13739D01*
X32988Y13661D01*
X33027D01*
X33452Y13236D01*
Y9425D01*
X33526Y9057D01*
X33734Y8744D01*
X33740Y8740D01*
Y7886D01*
X33818Y7496D01*
X34039Y7165D01*
X34358Y6847D01*
X34113Y6385D01*
X33294Y6222D01*
X32599Y5758D01*
X32135Y5064D01*
X31972Y4244D01*
X32135Y3425D01*
X32599Y2730D01*
X33294Y2266D01*
X34113Y2103D01*
X34932Y2266D01*
X35627Y2730D01*
X35821Y3021D01*
X72796D01*
X73264Y3114D01*
X73661Y3379D01*
X81613Y11331D01*
X82133D01*
Y11851D01*
X85897Y15615D01*
X86360Y15371D01*
X86463Y14852D01*
X86814Y14326D01*
X87340Y13974D01*
X87961Y13851D01*
X89922D01*
Y16063D01*
X90422D01*
Y16563D01*
X94504D01*
Y16654D01*
X94380Y17274D01*
X94029Y17800D01*
X93773Y17971D01*
X93741Y18551D01*
X94004Y18945D01*
X94096Y19410D01*
Y20591D01*
X94004Y21055D01*
X93741Y21449D01*
X93347Y21712D01*
X93339Y21714D01*
Y22223D01*
X93347Y22225D01*
X93741Y22488D01*
X94004Y22882D01*
X94096Y23346D01*
Y24528D01*
X94004Y24992D01*
X93741Y25386D01*
X93347Y25649D01*
X93339Y25651D01*
Y26160D01*
X93347Y26162D01*
X93741Y26425D01*
X94004Y26819D01*
X94096Y27283D01*
Y28465D01*
X94004Y28929D01*
X93741Y29323D01*
X93347Y29586D01*
X92882Y29678D01*
X87961D01*
X87497Y29586D01*
X87103Y29323D01*
X86634Y29277D01*
X75265Y40646D01*
X75472Y41146D01*
X108676D01*
Y36665D01*
D02*
G37*
G36*
X77690Y10869D02*
X72289Y5468D01*
X47459D01*
X47268Y5930D01*
X49846Y8508D01*
X52006D01*
X52451Y8596D01*
X52829Y8848D01*
X53015Y9128D01*
X53523Y9158D01*
X55572Y7110D01*
X55902Y6889D01*
X56293Y6811D01*
X66819D01*
X67209Y6889D01*
X67540Y7110D01*
X71761Y11331D01*
X77499D01*
X77690Y10869D01*
D02*
G37*
%LPC*%
G36*
X6890Y36460D02*
X5028D01*
Y33555D01*
X9114D01*
Y34236D01*
X8944Y35087D01*
X8462Y35809D01*
X7741Y36291D01*
X6890Y36460D01*
D02*
G37*
G36*
X105178Y36397D02*
X103315D01*
X102464Y36228D01*
X101743Y35746D01*
X101261Y35024D01*
X101092Y34173D01*
Y33492D01*
X105178D01*
Y36397D01*
D02*
G37*
G36*
X9114Y32555D02*
X5028D01*
Y29650D01*
X6890D01*
X7741Y29820D01*
X8462Y30301D01*
X8944Y31023D01*
X9114Y31874D01*
Y32555D01*
D02*
G37*
G36*
X105178Y32492D02*
X101092D01*
Y31811D01*
X101261Y30960D01*
X101743Y30239D01*
X102464Y29757D01*
X103315Y29587D01*
X105178D01*
Y32492D01*
D02*
G37*
G36*
X94504Y15563D02*
X90922D01*
Y13851D01*
X92882D01*
X93503Y13974D01*
X94029Y14326D01*
X94380Y14852D01*
X94504Y15472D01*
Y15563D01*
D02*
G37*
G36*
X6890Y14413D02*
X5028D01*
Y11508D01*
X9114D01*
Y12189D01*
X8944Y13040D01*
X8462Y13761D01*
X7741Y14243D01*
X6890Y14413D01*
D02*
G37*
G36*
X105178Y14350D02*
X103315D01*
X102464Y14180D01*
X101743Y13699D01*
X101261Y12977D01*
X101092Y12126D01*
Y11445D01*
X105178D01*
Y14350D01*
D02*
G37*
G36*
X9114Y10508D02*
X5028D01*
Y7603D01*
X6890D01*
X7741Y7772D01*
X8462Y8254D01*
X8944Y8976D01*
X9114Y9827D01*
Y10508D01*
D02*
G37*
G36*
X105178Y10445D02*
X101092D01*
Y9764D01*
X101261Y8913D01*
X101743Y8191D01*
X102464Y7709D01*
X103315Y7540D01*
X105178D01*
Y10445D01*
D02*
G37*
%LPD*%
D12*
X37508Y21081D02*
X38089Y21662D01*
X37508Y19520D02*
Y21081D01*
X37319Y19331D02*
X37508Y19520D01*
X38935Y22681D02*
X42597D01*
X38089Y21835D02*
X38935Y22681D01*
X38089Y21662D02*
Y21835D01*
X38051Y7848D02*
X43323D01*
X43819Y8344D01*
X37319Y8581D02*
Y11331D01*
Y8581D02*
X38051Y7848D01*
X42597Y22681D02*
X43278Y22000D01*
X43819D01*
X65319Y35331D02*
X72319D01*
X74319Y33331D01*
X59319Y35677D02*
X59492Y35504D01*
X65146D01*
X65319Y35331D01*
X57862Y10213D02*
X57921Y10272D01*
X65260D02*
X65319Y10331D01*
D14*
X56319Y23331D02*
X63854D01*
X63108Y20390D02*
X63167Y20331D01*
X55026Y22038D02*
X56319Y23331D01*
X57921Y20390D02*
X63108D01*
X63854Y23331D02*
X65185Y22000D01*
X12746Y21816D02*
Y37239D01*
X14500Y20063D02*
X19783D01*
X12746Y21816D02*
X14500Y20063D01*
X13156Y40242D02*
X74226D01*
X11347Y18342D02*
X12390Y17299D01*
X11347Y38433D02*
X13156Y40242D01*
X11347Y18342D02*
Y38433D01*
X12746Y37239D02*
X14350Y38842D01*
X36802Y5844D02*
X45741D01*
X34760Y7886D02*
X36802Y5844D01*
X45741D02*
X50109Y10213D01*
X12390Y17299D02*
X13563Y16126D01*
X19783D01*
X12390Y17299D02*
Y17299D01*
X19783Y16126D02*
X31543D01*
X74226Y40242D02*
X86594Y27874D01*
X14350Y38842D02*
X73646D01*
X88552Y23937D01*
X86594Y27874D02*
X90422D01*
X88552Y23937D02*
X90422D01*
X46319Y23035D02*
Y23035D01*
X48906Y20449D02*
X50776D01*
X46319Y23035D02*
X48906Y20449D01*
X19816Y20031D02*
X34727D01*
X19783Y20063D02*
X19816Y20031D01*
X34727D02*
X34760Y20063D01*
X44854Y24500D02*
X46319Y23035D01*
X37279Y24500D02*
X44854D01*
X34760Y21981D02*
X37279Y24500D01*
X34760Y20063D02*
Y21981D01*
X65226Y17331D02*
X65767D01*
X64801Y16905D02*
X65226Y17331D01*
X49890Y16905D02*
X53733D01*
X39878Y19331D02*
X42253D01*
X43639Y17944D01*
X48851D01*
X49890Y16905D01*
X64801Y28984D02*
X70759D01*
X71345Y24756D02*
Y28398D01*
X70759Y28984D02*
X71345Y28398D01*
X76856Y24756D02*
Y30793D01*
X74319Y33331D02*
X76856Y30793D01*
X57862Y16905D02*
X64801D01*
X58075Y13543D02*
X62506D01*
X56293Y7831D02*
X66819D01*
X57921Y10272D02*
X65260D01*
X66819Y7831D02*
X71345Y12357D01*
X53911Y10213D02*
X56293Y7831D01*
X71345Y12357D02*
Y19244D01*
X65185Y22000D02*
X73608D01*
X50776Y10213D02*
X53911D01*
X76364Y19244D02*
X76856D01*
X73608Y22000D02*
X76364Y19244D01*
X53733Y16905D02*
X55026Y18198D01*
Y22038D01*
X34760Y7886D02*
Y11331D01*
X46744Y13756D02*
X50776D01*
X44319Y11331D02*
X46744Y13756D01*
X39878Y11331D02*
X44319D01*
X50109Y10213D02*
X50776D01*
X38120Y14681D02*
X39008Y13793D01*
X32988Y14681D02*
X38120D01*
X39008Y13762D02*
X39878Y12892D01*
Y11331D02*
Y12892D01*
X39008Y13762D02*
Y13793D01*
X34760Y19331D02*
Y19774D01*
X31543Y16126D02*
X32988Y14681D01*
D25*
X105678Y32992D02*
D03*
Y10945D02*
D03*
X4527Y11008D02*
D03*
Y33055D02*
D03*
D26*
X90422Y16063D02*
D03*
Y20000D02*
D03*
Y23937D02*
D03*
Y27874D02*
D03*
X19783Y27937D02*
D03*
Y24000D02*
D03*
Y20063D02*
D03*
Y16126D02*
D03*
D27*
X57862Y10213D02*
D03*
X50776Y20449D02*
D03*
X57862D02*
D03*
X50776Y10213D02*
D03*
D28*
Y13756D02*
D03*
Y16905D02*
D03*
X57862D02*
D03*
Y13756D02*
D03*
D29*
X37319Y19331D02*
D03*
X34760D02*
D03*
X39878D02*
D03*
Y11331D02*
D03*
X37319D02*
D03*
X34760D02*
D03*
D30*
X76856Y24756D02*
D03*
X71345D02*
D03*
Y19244D02*
D03*
X76856D02*
D03*
D31*
X59319Y28984D02*
D03*
Y35677D02*
D03*
X29319Y28984D02*
D03*
Y35677D02*
D03*
D32*
X38569Y36071D02*
D03*
Y32331D02*
D03*
Y28591D02*
D03*
X48069D02*
D03*
Y36071D02*
D03*
D33*
X58925Y28591D02*
X59319Y28984D01*
X48069Y28591D02*
X58925D01*
X57862Y20449D02*
X57921Y20390D01*
X58925Y36071D02*
X59319Y35677D01*
X48069Y36071D02*
X58925D01*
X45219Y28591D02*
X48069D01*
X33768Y25531D02*
X34113Y25875D01*
X32238Y24000D02*
X33768Y25531D01*
X88552Y20000D02*
X90422D01*
X34113Y4244D02*
X72796D01*
X88552Y20000D01*
X19783Y24000D02*
X32238D01*
X90422Y20000D02*
X92292D01*
X34113Y25875D02*
X34853D01*
X37569Y28591D01*
X41479Y32331D02*
X45219Y28591D01*
X38569Y32331D02*
X41479D01*
X22701Y28984D02*
X29319D01*
X21654Y27937D02*
X22701Y28984D01*
X19783Y27937D02*
X21654D01*
X32469Y32331D02*
X38569D01*
X29319Y29181D02*
X32469Y32331D01*
X29319Y28984D02*
Y29181D01*
X37569Y28591D02*
X38569D01*
X24114Y35776D02*
X38274D01*
X38569Y36071D01*
X23819Y35480D02*
X24114Y35776D01*
X59319Y28984D02*
X64801D01*
X57862Y13756D02*
X58075Y13543D01*
X62506D02*
X62719Y13331D01*
D34*
X53000Y24000D02*
D03*
X84662Y22000D02*
D03*
X71345Y7598D02*
D03*
X105678Y22000D02*
D03*
X91701Y33779D02*
D03*
Y10158D02*
D03*
X18504Y10221D02*
D03*
Y33843D02*
D03*
X4527Y22000D02*
D03*
X43819Y8344D02*
D03*
X34113Y4244D02*
D03*
X43819Y22000D02*
D03*
X33768Y25531D02*
D03*
X23819Y35480D02*
D03*
X65319Y35331D02*
D03*
X63167Y20331D02*
D03*
X65767Y17331D02*
D03*
X62719Y13331D02*
D03*
X65319Y10331D02*
D03*
M02*
